<svg width="220" height="48" viewBox="0 0 220 48" fill="none" xmlns="http://www.w3.org/2000/svg">
<path fill-rule="evenodd" clip-rule="evenodd" d="M43.1111 3.77783H9.33333L0 28.2223H10.5293L15.1111 16.2223H38.3596L43.1111 3.77783Z" fill="white"/>
<path d="M18.2222 19.7778H52L42.6667 44.2223H8.88892L18.2222 19.7778Z" fill="#15BFFD"/>
<path d="M68.304 35.32C66.64 35.32 65.4453 34.9573 64.72 34.232C63.9947 33.5067 63.632 32.344 63.632 30.744V13.432H68.784V30.232C68.784 30.7227 68.88 31.064 69.072 31.256C69.2853 31.4267 69.5947 31.512 70 31.512C70.576 31.512 71.088 31.4373 71.536 31.288V34.776C71.0453 34.968 70.5547 35.1067 70.064 35.192C69.5947 35.2773 69.008 35.32 68.304 35.32ZM81.3798 35.32C78.4571 35.32 76.3024 34.648 74.9158 33.304C73.5291 31.9387 72.8358 29.976 72.8358 27.416C72.8358 24.8773 73.5291 22.9253 74.9158 21.56C76.3238 20.1947 78.4784 19.512 81.3798 19.512C84.3024 19.512 86.4571 20.1947 87.8438 21.56C89.2518 22.9253 89.9558 24.8773 89.9558 27.416C89.9558 29.976 89.2624 31.9387 87.8758 33.304C86.4891 34.648 84.3238 35.32 81.3798 35.32ZM81.3798 31.288C82.5744 31.288 83.4278 30.9893 83.9398 30.392C84.4518 29.7947 84.7078 28.8027 84.7078 27.416C84.7078 26.0293 84.4518 25.0373 83.9398 24.44C83.4278 23.8427 82.5744 23.544 81.3798 23.544C80.2064 23.544 79.3638 23.8427 78.8518 24.44C78.3398 25.0373 78.0838 26.0293 78.0838 27.416C78.0838 28.8027 78.3398 29.7947 78.8518 30.392C79.3638 30.9893 80.2064 31.288 81.3798 31.288ZM95.3315 40.632C94.5635 40.632 93.9022 40.5893 93.3475 40.504C92.8142 40.44 92.2808 40.3013 91.7475 40.088V36.504C92.1102 36.632 92.4408 36.7173 92.7395 36.76C93.0595 36.8027 93.3795 36.824 93.6995 36.824C94.5742 36.824 95.2248 36.664 95.6515 36.344C96.0995 36.0453 96.5475 35.5013 96.9955 34.712L90.1795 19.832H95.5875L99.5875 29.464L103.524 19.832H108.9L103.108 33.752C102.532 35.1387 101.892 36.344 101.188 37.368C100.484 38.4133 99.6622 39.2133 98.7235 39.768C97.7848 40.344 96.6542 40.632 95.3315 40.632ZM113.524 35.32C112.564 35.32 111.668 35.1493 110.836 34.808C110.026 34.4667 109.375 33.944 108.884 33.24C108.394 32.5147 108.148 31.6187 108.148 30.552C108.148 28.9947 108.671 27.7787 109.716 26.904C110.783 26.008 112.372 25.56 114.484 25.56H118.708V25.208C118.708 24.44 118.452 23.896 117.94 23.576C117.428 23.2347 116.468 23.064 115.06 23.064C113.332 23.064 111.636 23.3307 109.972 23.864V20.536C110.719 20.2373 111.626 19.992 112.692 19.8C113.78 19.608 114.922 19.512 116.116 19.512C118.463 19.512 120.298 19.992 121.62 20.952C122.964 21.912 123.636 23.4373 123.636 25.528V35H119.124L118.868 33.72C118.314 34.232 117.599 34.6267 116.724 34.904C115.871 35.1813 114.804 35.32 113.524 35.32ZM115.156 32.152C115.967 32.152 116.671 32.0133 117.268 31.736C117.866 31.4587 118.346 31.1067 118.708 30.68V28.536H115.06C113.546 28.536 112.788 29.144 112.788 30.36C112.788 30.9147 112.98 31.352 113.364 31.672C113.748 31.992 114.346 32.152 115.156 32.152ZM131.398 35.32C129.734 35.32 128.539 34.9573 127.814 34.232C127.088 33.5067 126.726 32.344 126.726 30.744V13.432H131.878V30.232C131.878 30.7227 131.974 31.064 132.166 31.256C132.379 31.4267 132.688 31.512 133.094 31.512C133.67 31.512 134.182 31.4373 134.63 31.288V34.776C134.139 34.968 133.648 35.1067 133.158 35.192C132.688 35.2773 132.102 35.32 131.398 35.32Z" fill="white"/>
<path d="M147.002 35.32C143.396 35.32 140.644 34.4027 138.746 32.568C136.868 30.712 135.93 28.1413 135.93 24.856C135.93 21.4213 136.847 18.7653 138.682 16.888C140.538 15.0107 143.3 14.072 146.97 14.072C148.228 14.072 149.348 14.168 150.33 14.36C151.332 14.552 152.292 14.808 153.21 15.128V19.64C151.354 18.872 149.402 18.488 147.354 18.488C145.22 18.488 143.652 19 142.65 20.024C141.668 21.048 141.178 22.6587 141.178 24.856C141.178 26.9467 141.7 28.4827 142.746 29.464C143.791 30.4453 145.348 30.936 147.418 30.936C148.42 30.936 149.412 30.8507 150.394 30.68C151.375 30.488 152.324 30.2 153.242 29.816V34.36C152.346 34.6587 151.396 34.8933 150.394 35.064C149.391 35.2347 148.26 35.32 147.002 35.32ZM155.851 35V13.432H161.003V20.952C161.579 20.5253 162.293 20.184 163.147 19.928C164 19.6507 164.917 19.512 165.899 19.512C167.925 19.512 169.408 19.992 170.347 20.952C171.307 21.912 171.787 23.384 171.787 25.368V35H166.635V25.72C166.635 24.8453 166.453 24.2267 166.091 23.864C165.728 23.5013 165.077 23.32 164.139 23.32C163.584 23.32 163.019 23.448 162.443 23.704C161.867 23.96 161.387 24.28 161.003 24.664V35H155.851ZM179.149 35.32C178.189 35.32 177.293 35.1493 176.461 34.808C175.651 34.4667 175 33.944 174.509 33.24C174.019 32.5147 173.773 31.6187 173.773 30.552C173.773 28.9947 174.296 27.7787 175.341 26.904C176.408 26.008 177.997 25.56 180.109 25.56H184.333V25.208C184.333 24.44 184.077 23.896 183.565 23.576C183.053 23.2347 182.093 23.064 180.685 23.064C178.957 23.064 177.261 23.3307 175.597 23.864V20.536C176.344 20.2373 177.251 19.992 178.317 19.8C179.405 19.608 180.547 19.512 181.741 19.512C184.088 19.512 185.923 19.992 187.245 20.952C188.589 21.912 189.261 23.4373 189.261 25.528V35H184.749L184.493 33.72C183.939 34.232 183.224 34.6267 182.349 34.904C181.496 35.1813 180.429 35.32 179.149 35.32ZM180.781 32.152C181.592 32.152 182.296 32.0133 182.893 31.736C183.491 31.4587 183.971 31.1067 184.333 30.68V28.536H180.685C179.171 28.536 178.413 29.144 178.413 30.36C178.413 30.9147 178.605 31.352 178.989 31.672C179.373 31.992 179.971 32.152 180.781 32.152ZM193.375 17.432V13.56H198.975V17.432H193.375ZM193.791 35V23.64H191.551L191.999 19.832H198.943V35H193.791ZM202.226 35V19.832H207.026L207.186 21.144C207.804 20.7173 208.583 20.344 209.522 20.024C210.46 19.6827 211.463 19.512 212.53 19.512C214.492 19.512 215.922 19.9813 216.818 20.92C217.714 21.8587 218.162 23.3093 218.162 25.272V35H213.01V25.688C213.01 24.8347 212.828 24.2267 212.466 23.864C212.103 23.5013 211.452 23.32 210.514 23.32C209.959 23.32 209.394 23.448 208.818 23.704C208.242 23.96 207.762 24.28 207.378 24.664V35H202.226Z" fill="#15BFFD"/>
</svg>
