<svg width="326" height="181" viewBox="0 0 326 181" fill="none" xmlns="http://www.w3.org/2000/svg">
<path d="M1.81097 79.9281C8.03279 68.3178 34.6012 47.3948 91.1004 56.5853C161.724 68.0733 87.5062 -53.8698 78.0503 31.6023C68.5945 117.074 142.406 109.584 160.895 83.9934C179.384 58.4024 119.839 33.6945 114.634 87.4228C111.801 116.663 118.418 133.417 131.677 139.149M131.677 139.149C142.781 143.95 158.544 141.019 177.316 131.217C218.504 109.71 155.778 88.5692 131.677 139.149ZM131.677 139.149C135.98 161.054 158.011 197.697 211.704 169.035C278.82 133.207 305.672 154.572 324.94 178.229" stroke="#283E8B" stroke-width="2"/>
</svg>
