<svg width="357" height="156" viewBox="0 0 357 156" fill="none" xmlns="http://www.w3.org/2000/svg">
<g filter="url(#filter0_d_21_386)">
<rect x="4.5" y="0.326172" width="348" height="147" rx="15" fill="#FF6CD3"/>
<mask id="mask0_21_386" style="mask-type:alpha" maskUnits="userSpaceOnUse" x="4" y="0" width="349" height="148">
<rect x="4.38477" y="0.0576172" width="348.23" height="147.54" rx="15" fill="#FFF3E0"/>
</mask>
<g mask="url(#mask0_21_386)">
<path d="M95.8309 74.1795H93.2753V63.6081H94.5531C95.9074 63.6125 97.205 64.1708 98.1626 65.1611C99.1202 66.1514 99.66 67.4933 99.6642 68.8938C99.6642 69.2443 99.7988 69.5804 100.038 69.8282C100.278 70.076 100.603 70.2153 100.942 70.2153C101.281 70.2153 101.606 70.076 101.846 69.8282C102.085 69.5804 102.22 69.2443 102.22 68.8938C102.22 66.791 101.412 64.7744 99.9743 63.2875C98.5365 61.8006 96.5864 60.9653 94.5531 60.9653H93.2753V58.3224C93.2753 57.9719 93.1407 57.6358 92.9011 57.388C92.6615 57.1402 92.3364 57.001 91.9976 57.001C91.6587 57.001 91.3337 57.1402 91.094 57.388C90.8544 57.6358 90.7198 57.9719 90.7198 58.3224V60.9653H88.8031C86.7698 60.9653 84.8197 61.8006 83.382 63.2875C81.9442 64.7744 81.1364 66.791 81.1364 68.8938C81.1364 70.9966 81.9442 73.0133 83.382 74.5002C84.8197 75.9871 86.7698 76.8224 88.8031 76.8224H90.7198V87.3938H88.1642C86.81 87.3895 85.5124 86.8312 84.5548 85.8409C83.5972 84.8505 83.0573 83.5086 83.0531 82.1081C83.0531 81.7577 82.9185 81.4215 82.6789 81.1737C82.4392 80.9259 82.1142 80.7867 81.7753 80.7867C81.4364 80.7867 81.1114 80.9259 80.8718 81.1737C80.6322 81.4215 80.4976 81.7577 80.4976 82.1081C80.4976 84.2109 81.3053 86.2276 82.7431 87.7145C84.1809 89.2014 86.1309 90.0367 88.1642 90.0367H90.7198V92.6795C90.7198 93.03 90.8544 93.3661 91.094 93.6139C91.3337 93.8618 91.6587 94.001 91.9976 94.001C92.3364 94.001 92.6615 93.8618 92.9011 93.6139C93.1407 93.3661 93.2753 93.03 93.2753 92.6795V90.0367H95.8309C97.8642 90.0367 99.8143 89.2014 101.252 87.7145C102.69 86.2276 103.498 84.2109 103.498 82.1081C103.498 80.0053 102.69 77.9887 101.252 76.5018C99.8143 75.0149 97.8642 74.1795 95.8309 74.1795ZM90.7198 74.1795H88.8031C87.4476 74.1795 86.1475 73.6227 85.189 72.6314C84.2305 71.6401 83.692 70.2957 83.692 68.8938C83.692 67.492 84.2305 66.1475 85.189 65.1563C86.1475 64.165 87.4476 63.6081 88.8031 63.6081H90.7198V74.1795ZM95.8309 87.3938H93.2753V76.8224H95.8309C97.1864 76.8224 98.4865 77.3793 99.445 78.3706C100.404 79.3618 100.942 80.7063 100.942 82.1081C100.942 83.51 100.404 84.8544 99.445 85.8457C98.4865 86.8369 97.1864 87.3938 95.8309 87.3938Z" fill="white"/>
<circle cx="91.4976" cy="74.001" r="27.5" stroke="white" stroke-width="3"/>
<line x1="50.9976" y1="51.501" x2="73.9976" y2="51.501" stroke="white" stroke-width="3" stroke-linecap="round"/>
<line x1="35.9976" y1="83.501" x2="58.9976" y2="83.501" stroke="white" stroke-width="3" stroke-linecap="round"/>
<line x1="50.9976" y1="96.501" x2="73.9976" y2="96.501" stroke="white" stroke-width="3" stroke-linecap="round"/>
<line x1="48.9976" y1="62.501" x2="58.9976" y2="62.501" stroke="white" stroke-width="3" stroke-linecap="round"/>
<line x1="38.9976" y1="62.501" x2="42.9976" y2="62.501" stroke="white" stroke-width="3" stroke-linecap="round"/>
<line x1="39.9976" y1="73.501" x2="62.9976" y2="73.501" stroke="white" stroke-width="3" stroke-linecap="round"/>
<path d="M342.022 71.3634L336.141 72.9393L329.622 48.6103L332.562 47.8224C335.682 46.9973 339.012 47.4819 341.827 49.1706C344.641 50.8592 346.711 53.6145 347.584 56.8351C347.801 57.6416 348.318 58.3321 349.022 58.7547C349.726 59.1772 350.56 59.2972 351.34 59.0882C352.12 58.8793 352.782 58.3584 353.181 57.6404C353.579 56.9223 353.682 56.0657 353.466 55.2592C352.169 50.4198 349.067 46.2768 344.841 43.7415C340.615 41.2062 335.612 40.4862 330.933 41.7401L327.992 42.5281L326.362 36.4458C326.146 35.6393 325.629 34.9487 324.925 34.5262C324.22 34.1036 323.387 33.9837 322.607 34.1926C321.827 34.4016 321.165 34.9224 320.766 35.6405C320.367 36.3586 320.265 37.2152 320.481 38.0217L322.111 44.104L317.7 45.2859C313.02 46.5397 309.047 49.6647 306.655 53.9732C304.263 58.2818 303.648 63.421 304.945 68.2603C306.241 73.0997 309.344 77.2427 313.57 79.778C317.796 82.3134 322.798 83.0333 327.478 81.7794L331.889 80.5975L338.408 104.926L332.527 106.502C329.407 107.327 326.077 106.843 323.262 105.154C320.448 103.466 318.378 100.71 317.504 97.4897C317.288 96.6831 316.771 95.9926 316.067 95.5701C315.363 95.1475 314.529 95.0275 313.749 95.2365C312.969 95.4455 312.307 95.9663 311.908 96.6844C311.51 97.4025 311.407 98.259 311.623 99.0656C312.92 103.905 316.022 108.048 320.248 110.583C324.474 113.119 329.477 113.838 334.156 112.585L340.038 111.009L341.667 117.091C341.884 117.898 342.401 118.588 343.105 119.011C343.809 119.433 344.643 119.553 345.423 119.344C346.203 119.135 346.865 118.614 347.264 117.896C347.662 117.178 347.765 116.322 347.549 115.515L345.919 109.433L351.8 107.857C356.48 106.603 360.453 103.478 362.845 99.1696C365.237 94.8611 365.852 89.7218 364.555 84.8825C363.258 80.0431 360.156 75.9001 355.93 73.3648C351.704 70.8295 346.701 70.1096 342.022 71.3634ZM330.259 74.5152L325.848 75.6971C322.729 76.5331 319.393 76.0531 316.576 74.3629C313.759 72.6727 311.691 69.9107 310.826 66.6844C309.962 63.4582 310.372 60.0321 311.967 57.1597C313.561 54.2873 316.21 52.204 319.329 51.3681L323.74 50.1862L330.259 74.5152ZM350.171 101.775L344.289 103.351L337.77 79.0216L343.652 77.4457C346.771 76.6098 350.107 77.0897 352.924 78.7799C355.741 80.4701 357.809 83.2322 358.674 86.4584C359.538 89.6846 359.128 93.1108 357.533 95.9831C355.939 98.8555 353.29 100.939 350.171 101.775Z" fill="#F54BC2"/>
<circle cx="331.944" cy="73.6237" r="68.8809" transform="rotate(-15 331.944 73.6237)" stroke="#F54BC3" stroke-width="15"/>
<line x1="226.658" y1="41.5099" x2="296.816" y2="14.6748" stroke="#F54BC3" stroke-width="15" stroke-linecap="round"/>
<line x1="212.846" y1="124.902" x2="258.194" y2="112.752" stroke="#F54BC3" stroke-width="15" stroke-linecap="round"/>
<line x1="254.327" y1="145.038" x2="290.781" y2="130.754" stroke="#F54BC3" stroke-width="15" stroke-linecap="round"/>
<line x1="229.813" y1="68.5566" x2="245.242" y2="64.4224" stroke="#F54BC3" stroke-width="15" stroke-linecap="round"/>
<line x1="206.803" y1="74.7236" x2="208.424" y2="74.2893" stroke="#F54BC3" stroke-width="15" stroke-linecap="round"/>
<line x1="215.885" y1="99.4218" x2="261.233" y2="87.2711" stroke="#F54BC3" stroke-width="15" stroke-linecap="round"/>
</g>
</g>
<defs>
<filter id="filter0_d_21_386" x="0.5" y="0" width="356.115" height="155.597" filterUnits="userSpaceOnUse" color-interpolation-filters="sRGB">
<feFlood flood-opacity="0" result="BackgroundImageFix"/>
<feColorMatrix in="SourceAlpha" type="matrix" values="0 0 0 0 0 0 0 0 0 0 0 0 0 0 0 0 0 0 127 0" result="hardAlpha"/>
<feOffset dy="4"/>
<feGaussianBlur stdDeviation="2"/>
<feComposite in2="hardAlpha" operator="out"/>
<feColorMatrix type="matrix" values="0 0 0 0 0 0 0 0 0 0 0 0 0 0 0 0 0 0 0.25 0"/>
<feBlend mode="normal" in2="BackgroundImageFix" result="effect1_dropShadow_21_386"/>
<feBlend mode="normal" in="SourceGraphic" in2="effect1_dropShadow_21_386" result="shape"/>
</filter>
</defs>
</svg>
