<svg width="80" height="81" viewBox="0 0 80 81" fill="none" xmlns="http://www.w3.org/2000/svg">
<rect x="0.5" y="0.674698" width="79" height="79.1225" rx="39.5" fill="white" stroke="#C3C3C3"/>
<path d="M49.0744 26.2476C52.8025 26.2476 55.8461 39.3276 55.8675 55.4634H61.2708C61.2478 38.0909 55.7852 24 49.0705 24C45.2473 24 41.849 28.2363 39.6285 34.8547C37.3904 28.2363 33.9808 24 30.1576 24C23.4439 24 18.0187 38.0909 18.0417 55.4634H23.445C23.4236 39.3269 26.4325 26.2476 30.1606 26.2476C33.8887 26.2476 36.9309 38.316 36.9507 53.2165H42.354C42.3352 38.3267 45.3454 26.2476 49.0744 26.2476Z" fill="#FFC300"/>
</svg>
