<svg width="80" height="81" viewBox="0 0 80 81" fill="none" xmlns="http://www.w3.org/2000/svg">
<rect x="0.5" y="0.735931" width="79" height="79" rx="39.5" fill="white" stroke="#C3C3C3"/>
<g clip-path="url(#clip0_365_391)">
<rect width="39.8237" height="41.0304" transform="translate(22.3309 15.4291)" fill="white"/>
<path d="M36.2778 41.4032C36.2778 41.4032 40.0781 35.727 40.4204 35.1663C40.8401 34.4801 40.8572 33.3891 40.4816 32.8031C40.29 32.4969 34.6233 23.537 34.6233 23.537C34.1139 22.5689 34.2402 21.9089 34.5801 21.4362C35.139 20.6116 36.1246 19.1506 36.1246 19.1506C36.1246 19.1506 43.0033 29.94 43.2891 30.4224C44.0283 31.6536 43.8237 32.8587 43.2151 33.892C42.7048 34.7622 38.2476 41.4039 38.2476 41.4039" fill="#F99C1C"/>
<path d="M35.0535 42.016C35.0535 42.016 39.4521 35.5786 39.7789 35.0449C40.1628 34.3931 40.1205 33.4756 39.7789 32.9223C39.5955 32.6298 33.4888 23.0195 33.4888 23.0195C33.4888 23.0195 32.4049 24.6533 32.0633 25.1583C31.7219 25.6603 31.519 26.287 32.105 27.2938C32.105 27.2938 36.479 34.1957 36.6633 34.4882C37.0195 35.0514 37.004 36.0853 36.6063 36.7373C36.2795 37.2636 31.7693 43.8386 31.7693 43.8386H44.7846C46.1066 43.8386 46.8321 43.3245 47.4719 42.4053C48.0252 41.6239 50.1661 38.5137 50.4946 38.0256C50.8183 37.5366 51.471 37.2114 51.7627 37.2114H52.7799L50.7955 34.1924H47.629C47.0243 34.1924 46.2931 34.7294 45.9094 35.2982C45.6086 35.7472 43.4424 38.9909 43.0536 39.5125C42.832 39.8067 42.642 39.8711 42.466 39.8727C42.3691 39.8727 42.0885 39.871 42.0544 39.871C42.1833 39.6119 45.8197 34.321 46.5354 33.1567C47.4 31.7225 47.5957 29.8288 46.5671 28.0117C46.1916 27.3527 38.634 15.429 38.634 15.429C38.634 15.429 37.6267 16.877 37.2078 17.4986C36.8679 18.0047 36.7636 18.6672 37.2534 19.636C37.2534 19.636 43.5974 29.7255 43.8998 30.1874C44.6366 31.338 44.5452 32.8756 43.8998 33.9226C43.3733 34.7863 38.9895 41.4037 38.9895 41.4037H42.463C43.7213 41.4037 44.0301 40.9368 44.3773 40.5505C44.7247 40.1608 46.6138 37.2976 46.8273 36.9961C47.0458 36.6971 47.5966 35.8513 48.3212 35.8513H50.6025V35.9173C50.1166 36.0151 49.6374 36.3092 49.2903 36.7852C48.943 37.2551 46.6512 40.6498 46.375 41.045C46.0271 41.5437 45.631 42.0165 44.6334 42.0165" fill="#F99C1C"/>
<path d="M23.7447 48.3707H24.9329C25.2043 48.3707 25.3883 48.5273 25.3883 48.8304C25.3883 49.1331 25.2042 49.2902 24.9329 49.2902H22.3785V50.0835H24.8431C25.8003 50.0835 26.2701 49.4528 26.2701 48.8127C26.2701 48.1716 25.7998 47.5462 24.8431 47.5462C24.4318 47.5462 23.6495 47.5486 23.6495 47.5486C23.3835 47.5486 23.2055 47.3952 23.2055 47.1018C23.2055 46.8064 23.3835 46.6535 23.6495 46.6535H26.2086V45.8604H23.7451C22.7991 45.8604 22.3325 46.419 22.3325 47.1175C22.3319 47.8181 22.7985 48.3707 23.7447 48.3707ZM36.4335 50.0828H38.3192V47.3275H37.392V49.2677H36.3058C35.5224 49.2677 34.9967 48.8158 34.9967 47.9496C34.9967 47.0803 35.5218 46.6322 36.3058 46.6322H38.3186V45.8606H36.4329C34.8425 45.8606 34.0591 47.0005 34.0591 47.9766C34.059 48.9509 34.8431 50.0828 36.4335 50.0828ZM27.2181 45.8606H28.1448V50.0829H27.2181V45.8606ZM30.2183 46.6315H31.7539C32.1304 46.6315 32.3717 46.9747 32.3717 47.2933V50.0823H33.2964V47.1767C33.2964 46.4571 32.7843 45.8598 31.964 45.8598H30.7483L30.2189 46.5634V45.8597H29.2929V50.0823H30.2189M54.8399 46.6321H56.2951C56.636 46.6321 56.8508 46.9599 56.8508 47.2545C56.8508 47.5491 56.6352 47.8671 56.2952 47.8671H55.1562L57.0011 50.0821H58.0997L56.7914 48.5079H56.7938C57.3563 48.3262 57.7178 47.8093 57.7178 47.2271C57.7178 46.4998 57.1555 45.8595 56.3357 45.8595H53.9276V50.0818H54.8399M62.1529 50.0828V49.31L59.6796 49.3117V48.2294H61.8337V47.4615H59.6798V46.6316L62.1529 46.6321V45.8606H58.7477V50.0828H59.6798M41.3549 46.5885L42.0254 48.1141L40.6893 48.1165L41.3549 46.5885ZM40.3731 48.857L42.3416 48.8582L42.8901 50.0824H43.9014L41.8336 45.8599H40.8765L38.8091 50.0823H39.8278M45.3043 46.6315H46.7417C47.0819 46.6315 47.2987 46.9864 47.2987 47.3056C47.2987 47.6229 47.0813 47.9675 46.7417 47.9675H45.3043V46.6315ZM45.3043 48.0337V48.0318L45.8335 48.7341H46.7809C47.5773 48.7341 48.1391 48.0711 48.1391 47.306C48.1391 46.5375 47.5773 45.861 46.7809 45.861H44.3733V50.0834H45.3043M50.9386 46.5203C51.7325 46.5203 52.3802 47.1673 52.3802 47.9667C52.3802 48.7592 51.7325 49.405 50.9386 49.405C50.1402 49.405 49.4931 48.7591 49.4931 47.9667C49.4931 47.1674 50.1403 46.5203 50.9386 46.5203ZM50.9386 50.2597C52.2046 50.2597 53.2325 49.2308 53.2325 47.9674C53.2325 46.6971 52.2039 45.6687 50.9386 45.6687C49.6705 45.6687 48.6476 46.6971 48.6476 47.9674C48.647 49.2308 49.6699 50.2597 50.9386 50.2597ZM42.8278 52.238H43.759V56.4577H42.8278V52.238ZM42.1777 56.4589V55.6863L40.0181 55.688V52.2374H39.0861V56.4589H40.0181M28.8962 52.9653L29.566 54.4906L28.2301 54.493L28.8962 52.9654M27.9147 55.2333L29.8814 55.2345L30.4291 56.4585H31.4408L29.3738 52.237H28.4166L26.3493 56.4583H27.369M35.1929 53.009H36.649C36.9892 53.009 37.2058 53.3365 37.2058 53.6311C37.2058 53.9258 36.9884 54.2438 36.649 54.2438H35.5102L37.3556 56.4582H38.4539L37.1446 54.8844H37.147C37.7093 54.7028 38.0709 54.1861 38.0709 53.6041C38.0709 52.8768 37.5098 52.2367 36.6903 52.2367H34.2819V56.4582H35.1927M32.064 52.2374H32.9909V56.4589H32.064V52.2374ZM55.6206 54.7472H56.8065C57.0797 54.7472 57.2631 54.9037 57.2631 55.2069C57.2631 55.5094 57.0797 55.6666 56.8065 55.6666H54.2534V56.4596H56.718C57.6745 56.4596 58.1448 55.8292 58.1448 55.1891C58.1448 54.5482 57.6739 53.9229 56.718 53.9229C56.3074 53.9229 55.524 53.9253 55.524 53.9253C55.2588 53.9253 55.0808 53.7719 55.0808 53.4785C55.0808 53.1833 55.2588 53.0304 55.524 53.0304H58.0822V52.2374H55.6205C54.6731 52.2374 54.2067 52.796 54.2067 53.4944C54.2073 54.1948 54.6732 54.7472 55.6206 54.7472ZM53.3154 56.4589V55.6863L50.842 55.688V54.606H52.9973V53.8382H50.8419V53.0084L53.3154 53.009V52.2374H49.9114V56.4589H50.842M45.8205 53.0084H47.3569C47.7327 53.0084 47.9727 53.3514 47.9727 53.67V56.4583H48.8985V53.5533C48.8985 52.834 48.3866 52.237 47.5659 52.237H46.3503L45.8212 52.9403V52.237H44.8953V56.4585H45.8212" fill="#021F5E"/>
</g>
<defs>
<clipPath id="clip0_365_391">
<rect width="39.8237" height="41.0304" fill="white" transform="translate(22.3309 15.4291)"/>
</clipPath>
</defs>
</svg>
