<svg width="80" height="81" viewBox="0 0 80 81" fill="none" xmlns="http://www.w3.org/2000/svg">
<rect x="0.5" y="0.735931" width="79" height="79" rx="39.5" fill="white"/>
<path d="M10.7385 47.9047C10.9032 47.9881 11.156 48.072 11.4167 48.072C11.6975 48.072 11.8462 47.9566 11.8462 47.7812C11.8462 47.6134 11.7177 47.5181 11.3928 47.4023C10.9432 47.246 10.6504 46.9998 10.6504 46.6087C10.6504 46.1497 11.0358 45.7991 11.6737 45.7991C11.9788 45.7991 12.2036 45.8629 12.3638 45.9354L12.2275 46.4254C12.1192 46.3735 11.9265 46.2974 11.6617 46.2974C11.3965 46.2974 11.2685 46.4177 11.2685 46.5563C11.2685 46.7281 11.4208 46.8038 11.77 46.9355C12.2477 47.111 12.4725 47.3581 12.4725 47.7365C12.4725 48.1873 12.1234 48.5743 11.3805 48.5743C11.0717 48.5743 10.7665 48.4912 10.6142 48.407L10.7385 47.9047ZM14.5352 48.056C14.5352 48.2437 14.5434 48.4229 14.5631 48.5301H14.0134L13.9776 48.335H13.9652C13.8367 48.4912 13.6362 48.5743 13.4035 48.5743C13.0062 48.5743 12.7694 48.2875 12.7694 47.9762C12.7694 47.4702 13.2269 47.2267 13.9211 47.2309V47.2027C13.9211 47.0992 13.8647 46.9519 13.5641 46.9519C13.3628 46.9519 13.1507 47.0194 13.0222 47.0992L12.9098 46.7085C13.0461 46.6328 13.315 46.5367 13.6724 46.5367C14.3263 46.5367 14.5351 46.92 14.5351 47.3782V48.056H14.5352ZM13.9414 47.6092C13.6202 47.6056 13.3715 47.6813 13.3715 47.9165C13.3715 48.0719 13.4757 48.148 13.6123 48.148C13.7647 48.148 13.8891 48.0482 13.9294 47.9246C13.9375 47.8906 13.9415 47.8557 13.9414 47.8207V47.6092ZM15.4222 46.5809L15.687 47.4858C15.7331 47.6418 15.7706 47.8002 15.7994 47.9603H15.8114C15.8435 47.8008 15.8756 47.6535 15.9201 47.4858L16.1725 46.5809H16.8149L16.0844 48.5302H15.4745L14.7601 46.5809H15.4222ZM17.5056 47.7491C17.525 47.9998 17.7741 48.1201 18.0591 48.1201C18.2678 48.1201 18.4363 48.0915 18.601 48.0403L18.6813 48.451C18.4803 48.5304 18.2357 48.5742 17.9705 48.5742C17.3042 48.5742 16.9229 48.1876 16.9229 47.5773C16.9229 47.0835 17.2322 46.5365 17.9145 46.5365C18.5486 46.5365 18.7896 47.027 18.7896 47.5093C18.7896 47.6132 18.7772 47.7053 18.7694 47.7491H17.5056ZM18.2238 47.3342C18.2238 47.187 18.1595 46.9395 17.8783 46.9395C17.6218 46.9395 17.5172 47.171 17.5011 47.3342H18.2238ZM19.9655 47.2026C19.9655 46.9596 19.9573 46.7522 19.9491 46.5808H20.463L20.4909 46.8438H20.5033C20.5877 46.7203 20.7603 46.5366 21.0975 46.5366C21.3499 46.5366 21.5509 46.6642 21.6353 46.8676H21.6431C21.7156 46.7636 21.8037 46.6888 21.8959 46.6328C22.0042 46.5685 22.1249 46.5366 22.2694 46.5366C22.6462 46.5366 22.9312 46.8001 22.9312 47.3822V48.5301H22.3374V47.4702C22.3374 47.1871 22.2451 47.0234 22.0487 47.0234C21.9079 47.0234 21.8078 47.1191 21.7675 47.2349C21.7514 47.2787 21.7432 47.3425 21.7432 47.3899V48.5301H21.1494V47.4378C21.1494 47.1911 21.0608 47.0234 20.8685 47.0234C20.7121 47.0234 20.6198 47.1433 20.5836 47.2423C20.5634 47.2901 20.5593 47.3462 20.5593 47.394V48.53H19.9655V47.2026ZM25.3554 47.5337C25.3554 48.2471 24.8457 48.5744 24.3202 48.5744C23.7462 48.5744 23.3043 48.1997 23.3043 47.5697C23.3043 46.9397 23.7223 46.5367 24.3519 46.5367C24.954 46.5367 25.3554 46.9479 25.3554 47.5337ZM23.9348 47.5537C23.9348 47.8887 24.0752 48.1399 24.3363 48.1399C24.5726 48.1399 24.7254 47.9047 24.7254 47.5537C24.7254 47.2625 24.613 46.9679 24.3363 46.9679C24.0431 46.9679 23.9348 47.2661 23.9348 47.5537ZM25.7326 47.2026C25.7326 46.9596 25.7248 46.7522 25.717 46.5808H26.2465L26.2745 46.8475H26.2865C26.3672 46.724 26.5677 46.5366 26.8926 46.5366C27.2941 46.5366 27.5951 46.8 27.5951 47.374V48.53H26.9849V47.4501C26.9849 47.1989 26.8963 47.0271 26.676 47.0271C26.5072 47.0271 26.4071 47.1433 26.3672 47.2545C26.3507 47.2942 26.3429 47.3507 26.3429 47.4063V48.53H25.7326V47.2026ZM28.554 47.7491C28.5742 47.9998 28.8229 48.1201 29.1083 48.1201C29.3171 48.1201 29.4855 48.0915 29.6498 48.0403L29.7305 48.451C29.5295 48.5304 29.2845 48.5742 29.0197 48.5742C28.3535 48.5742 27.9722 48.1876 27.9722 47.5773C27.9722 47.0835 28.2814 46.5365 28.9637 46.5365C29.5979 46.5365 29.8384 47.027 29.8384 47.5093C29.8384 47.6132 29.8268 47.7053 29.8186 47.7491H28.554ZM29.2726 47.3342C29.2726 47.187 29.2087 46.9395 28.9275 46.9395C28.6705 46.9395 28.5664 47.171 28.5503 47.3342H29.2726ZM30.6373 46.5809L30.9301 47.5382C30.9622 47.6535 31.0025 47.7971 31.0265 47.9006H31.0384C31.0668 47.7971 31.0985 47.6498 31.1269 47.5382L31.3678 46.5809H32.0221L31.5643 47.8646C31.2834 48.6382 31.0948 48.9491 30.8745 49.1442C30.6612 49.3279 30.4368 49.3917 30.284 49.4113L30.1556 48.8975C30.2322 48.8853 30.3281 48.8497 30.4203 48.794C30.513 48.7458 30.613 48.65 30.6736 48.5502C30.6934 48.5224 30.7057 48.4913 30.7057 48.4627C30.7057 48.4431 30.7016 48.4112 30.6773 48.3633L29.9592 46.5809H30.6373ZM32.5865 48.5742C32.3814 48.5742 32.2332 48.4192 32.2332 48.2073C32.2332 47.9925 32.3814 47.8371 32.5943 47.8371C32.8072 47.8371 32.9518 47.988 32.9518 48.2073C32.9518 48.4192 32.8072 48.5742 32.5902 48.5742H32.5865ZM34.3136 45.8428H34.9275V48.0203H36.0035V48.53H34.3136V45.8428ZM37.0549 46.0385C37.0549 46.2063 36.9265 46.3421 36.7259 46.3421C36.5328 46.3421 36.4047 46.2063 36.4088 46.0385C36.4047 45.8631 36.5328 45.7321 36.7296 45.7321C36.9264 45.7321 37.0508 45.8631 37.0549 46.0385ZM36.4245 48.5303V46.581H37.0347V48.5302H36.4245V48.5303ZM38.0582 46.5809L38.3229 47.4858C38.3707 47.6498 38.4074 47.8048 38.4354 47.9603H38.4473C38.479 47.8008 38.5115 47.6535 38.556 47.4858L38.8088 46.5809H39.4512L38.7207 48.5302H38.11L37.396 46.5809H38.0582ZM40.1415 47.7491C40.1617 47.9998 40.4104 48.1201 40.695 48.1201C40.9041 48.1201 41.0726 48.0915 41.2369 48.0403L41.3172 48.451C41.1166 48.5304 40.8716 48.5742 40.6072 48.5742C39.941 48.5742 39.5593 48.1876 39.5593 47.5773C39.5593 47.0835 39.8685 46.5365 40.5508 46.5365C41.185 46.5365 41.4259 47.027 41.4259 47.5093C41.4259 47.6132 41.4135 47.7053 41.4049 47.7491H40.1415ZM40.8601 47.3342C40.8601 47.187 40.7958 46.9395 40.5142 46.9395C40.2572 46.9395 40.1534 47.171 40.1378 47.3342H40.8601ZM42.6016 45.6998H43.2114V46.8121H43.2196C43.3362 46.6444 43.5412 46.5368 43.8139 46.5368C44.2833 46.5368 44.6288 46.9238 44.6242 47.5218C44.6242 48.2234 44.175 48.574 43.7257 48.574C43.4972 48.574 43.2756 48.4914 43.1352 48.2594H43.127L43.1031 48.5302H42.5855C42.5933 48.403 42.6016 48.1678 42.6016 47.9485V45.6998ZM43.2114 47.701C43.2114 47.7407 43.2155 47.7771 43.2234 47.809C43.2633 47.9718 43.4041 48.0958 43.5812 48.0958C43.8418 48.0958 44.0024 47.8966 44.0024 47.5456C44.0024 47.2425 43.8657 47.0036 43.5812 47.0036C43.416 47.0036 43.2633 47.1267 43.2234 47.3026C43.2153 47.3394 43.2113 47.377 43.2114 47.4147V47.701ZM45.4836 47.7491C45.5038 47.9998 45.7525 48.1201 46.0371 48.1201C46.2458 48.1201 46.4143 48.0915 46.579 48.0403L46.6593 48.451C46.4588 48.5304 46.2133 48.5742 45.9486 48.5742C45.2827 48.5742 44.9014 48.1876 44.9014 47.5773C44.9014 47.0835 45.2107 46.5365 45.893 46.5365C46.5271 46.5365 46.7676 47.027 46.7676 47.5093C46.7676 47.6132 46.7557 47.7053 46.7478 47.7491H45.4836ZM46.2014 47.3342C46.2014 47.187 46.1367 46.9395 45.8571 46.9395C45.6002 46.9395 45.4956 47.171 45.4795 47.3342H46.2014ZM47.8951 46.0504V46.581H48.3332V47.0269H47.8951V47.733C47.8951 47.9686 47.9515 48.0758 48.136 48.0758C48.2204 48.0758 48.257 48.0721 48.3172 48.0598L48.3209 48.5188C48.2406 48.5499 48.096 48.574 47.9231 48.574C47.7267 48.574 47.5623 48.5029 47.466 48.4031C47.3536 48.2873 47.2971 48.0999 47.2971 47.825V47.0269H47.0365V46.581H47.2971V46.2141L47.8951 46.0504ZM49.4487 46.0504V46.581H49.8856V47.0269H49.4487V47.733C49.4487 47.9686 49.5051 48.0758 49.6888 48.0758C49.7732 48.0758 49.8094 48.0721 49.8699 48.0598L49.8737 48.5188C49.7933 48.5499 49.6497 48.574 49.4763 48.574C49.2803 48.574 49.1152 48.5029 49.0188 48.4031C48.9068 48.2873 48.8504 48.0999 48.8504 47.825V47.0269H48.5893V46.581H48.8504V46.2141L49.4487 46.0504ZM50.7886 47.7491C50.8088 47.9998 51.0579 48.1201 51.3437 48.1201C51.5517 48.1201 51.7201 48.0915 51.8844 48.0403L51.9643 48.451C51.7641 48.5304 51.5199 48.5742 51.2547 48.5742C50.5885 48.5742 50.2072 48.1876 50.2072 47.5773C50.2072 47.0835 50.5164 46.5365 51.1987 46.5365C51.832 46.5365 52.0738 47.027 52.0738 47.5093C52.0738 47.6132 52.0614 47.7053 52.0532 47.7491H50.7886ZM51.5076 47.3342C51.5076 47.187 51.4434 46.9395 51.1625 46.9395C50.9052 46.9395 50.801 47.171 50.7845 47.3342H51.5076ZM52.5184 47.2225C52.5184 46.9353 52.5109 46.7484 52.5031 46.581H53.029L53.0491 46.9398H53.0652C53.1653 46.6559 53.4058 46.5365 53.5943 46.5365C53.6503 46.5365 53.6788 46.5365 53.7228 46.5446V47.119C53.6787 47.1067 53.6264 47.0993 53.5581 47.0993C53.3333 47.0993 53.1813 47.2188 53.1414 47.4061C53.1335 47.4462 53.1294 47.4941 53.1294 47.5419V48.5303H52.5183V47.2225H52.5184ZM54.3507 48.5742C54.146 48.5742 53.9982 48.4192 53.9982 48.2073C53.9982 47.9925 54.146 47.8371 54.3589 47.8371C54.5714 47.8371 54.7159 47.988 54.7159 48.2073C54.7159 48.4192 54.5713 48.5742 54.3548 48.5742H54.3507Z" fill="#0071CE"/>
<path d="M62.974 37.3777C63.313 37.3777 63.5917 37.203 63.6292 36.9768L63.9644 33.2185C63.9644 32.8471 63.5262 32.5419 62.9753 32.5419C62.4247 32.5419 61.9874 32.8471 61.9874 33.2185L62.3218 36.9768C62.3584 37.203 62.6376 37.3777 62.9753 37.3777H62.974ZM60.9293 38.5518C61.0993 38.2606 61.0861 37.9333 60.907 37.7881L57.7976 35.6216C57.4748 35.4355 56.9897 35.6592 56.7142 36.1333C56.4383 36.6067 56.4873 37.1356 56.8102 37.3209L60.2531 38.9139C60.4684 38.9932 60.7616 38.8407 60.9304 38.5498L60.9293 38.5518ZM65.0202 38.5497C65.1899 38.8406 65.4818 38.9932 65.6972 38.9138L69.1405 37.3209C69.4646 37.1356 69.5111 36.6066 69.2373 36.1333C68.961 35.6592 68.4751 35.4354 68.1527 35.6216L65.0433 37.7881C64.8654 37.9333 64.8522 38.2606 65.0215 38.5518L65.0202 38.5497ZM62.974 42.0719C63.313 42.0719 63.5917 42.2458 63.6292 42.472L63.9644 46.2299C63.9644 46.6022 63.5262 46.9065 62.9753 46.9065C62.4247 46.9065 61.9874 46.6021 61.9874 46.2299L62.3218 42.472C62.3584 42.2458 62.6376 42.0719 62.9753 42.0719H62.974ZM65.0202 40.8982C65.1899 40.6066 65.4818 40.4552 65.6972 40.5358L69.1405 42.1267C69.4646 42.3129 69.5111 42.8422 69.2373 43.3159C68.961 43.7884 68.4751 44.013 68.1527 43.8277L65.0433 41.6628C64.8654 41.5156 64.8522 41.1883 65.0215 40.8975L65.0202 40.8982ZM60.9293 40.8976C61.0993 41.1885 61.0861 41.5158 60.907 41.6627L57.7976 43.8275C57.4748 44.0128 56.9897 43.7882 56.7142 43.3157C56.4383 42.842 56.4873 42.3131 56.8102 42.1265L60.2531 40.5356C60.4684 40.455 60.7616 40.6068 60.9309 40.8985L60.9293 40.8976Z" fill="#FDBB30"/>
<path d="M45.063 40.1565C45.063 38.7373 44.4532 37.4888 42.391 37.4888C41.3323 37.4888 40.4918 37.7842 40.0335 38.0473L40.3691 39.1878C40.7879 38.9252 41.4562 38.7079 42.0883 38.7079C43.1342 38.7051 43.3055 39.2958 43.3055 39.6746V39.7646C41.0251 39.7609 39.5842 40.5451 39.5842 42.1434C39.5842 43.1191 40.318 44.0334 41.5942 44.0334C42.3786 44.0334 43.035 43.7225 43.4278 43.2242H43.4665C43.4665 43.2242 43.7272 44.3066 45.1627 43.8926C45.0873 43.4418 45.063 42.9616 45.063 42.3835L45.063 40.1565ZM43.3607 41.6553C43.3607 41.7707 43.3504 41.8902 43.3183 41.9945C43.1865 42.4281 42.734 42.7951 42.1686 42.7951C41.6967 42.7951 41.3224 42.5292 41.3224 41.9667C41.3224 41.1064 42.2757 40.8683 43.3607 40.874V41.6553ZM9.5387 35.5563C9.5387 35.5563 11.0285 41.6214 11.2661 42.6057C11.5436 43.7548 12.044 44.1778 13.4856 43.8926L14.4158 40.1319C14.6514 39.198 14.8099 38.532 14.9615 37.5821H14.9882C15.0945 38.5414 15.2464 39.2009 15.4404 40.1352C15.4404 40.1352 15.8188 41.8423 16.0128 42.739C16.2076 43.6353 16.7486 44.1998 18.1607 43.8926L20.3773 35.5563H18.5877L17.8308 39.1604C17.6274 40.2093 17.443 41.0291 17.3005 41.9888H17.2753C17.1456 41.0384 16.9813 40.2514 16.7742 39.2295L15.986 35.5563H14.1215L13.279 39.137C13.0401 40.2248 12.8165 41.1035 12.6745 42.0305H12.6489C12.5036 41.1575 12.3096 40.0534 12.1 39C12.1 39 11.5993 36.4391 11.4235 35.5563H9.5387V35.5563ZM25.4636 40.1565C25.4636 38.7373 24.8533 37.4888 22.7919 37.4888C21.7328 37.4888 20.8923 37.7842 20.434 38.0473L20.7692 39.1878C21.1888 38.9252 21.8563 38.7079 22.4884 38.7079C23.5352 38.7051 23.7065 39.2958 23.7065 39.6746V39.7646C21.4256 39.7609 19.9848 40.5451 19.9848 42.1434C19.9848 43.1191 20.7186 44.0334 21.9935 44.0334C22.7788 44.0334 23.4351 43.7225 23.8288 43.2242H23.8671C23.8671 43.2242 24.1278 44.3066 25.5633 43.8926C25.4879 43.4418 25.4636 42.9616 25.4636 42.3835V40.1565H25.4636ZM23.7612 41.6553C23.7612 41.7707 23.7514 41.8902 23.7188 41.9945C23.587 42.4281 23.1345 42.7951 22.5691 42.7951C22.0977 42.7951 21.7229 42.5292 21.7229 41.9667C21.7229 41.1064 22.6762 40.8683 23.7613 40.874L23.7612 41.6553ZM28.3038 42.1226V35.5564H26.5999V43.8927H28.3038V42.1226ZM50.598 35.5563V41.7061C50.598 42.5538 50.7586 43.1477 51.1024 43.5106C51.4026 43.828 51.8968 44.0334 52.4897 44.0334C52.9933 44.0334 53.4891 43.9385 53.7226 43.8522L53.7008 42.5296C53.527 42.5717 53.3269 42.6057 53.0535 42.6057C52.4729 42.6057 52.2785 42.2363 52.2785 41.4754V39.1227H53.7622V37.5278H52.2785V35.5563H50.598ZM46.1993 37.6301V43.8928H47.9572V40.686C47.9572 40.5129 47.9674 40.362 47.995 40.2237C48.1252 39.552 48.6424 39.1224 49.3848 39.1224C49.5882 39.1224 49.734 39.1445 49.8922 39.1674V37.5274C49.7596 37.5012 49.6694 37.489 49.5047 37.489C48.8487 37.489 48.1026 37.9095 47.7892 38.8115H47.7414V37.6301H46.1993ZM29.4973 37.6301V43.8928H31.2103V40.22C31.2103 40.0478 31.2301 39.8657 31.2906 39.7074C31.4327 39.3376 31.7786 38.9052 32.3316 38.9052C33.023 38.9052 33.3462 39.4857 33.3462 40.3235V43.8928H35.0576V40.1754C35.0576 40.011 35.0803 39.8134 35.1288 39.6677C35.2697 39.2472 35.6427 38.9052 36.1567 38.9052C36.8575 38.9052 37.1935 39.4755 37.1935 40.4614V43.8928H38.9061V40.2041C38.9061 38.2589 37.9121 37.489 36.7896 37.489C36.2926 37.489 35.9005 37.6125 35.5456 37.8289C35.2475 38.0106 34.9806 38.2691 34.7471 38.609H34.722C34.4511 37.934 33.8144 37.489 32.9847 37.489C31.9186 37.489 31.4393 38.0257 31.1486 38.481H31.1235V37.6301H29.4973Z" fill="#0071CE"/>
<path d="M69.8694 43.5118C70.0374 43.5118 70.1675 43.6415 70.1675 43.8027C70.1675 43.968 70.0374 44.0956 69.8677 44.0956C69.6997 44.0956 69.5659 43.968 69.5659 43.8027C69.5659 43.6415 69.6998 43.5118 69.8677 43.5118H69.8694ZM69.8657 43.5703C69.7372 43.5703 69.6405 43.6751 69.6405 43.8027C69.6405 43.9324 69.7372 44.0355 69.8694 44.0355C69.9979 44.0371 70.0926 43.9324 70.0926 43.8027C70.0926 43.6751 69.9979 43.5703 69.8677 43.5703H69.8657ZM69.8212 43.9536H69.7533V43.6644C69.7903 43.6571 69.828 43.6536 69.8657 43.6537C69.9213 43.6537 69.946 43.6628 69.9674 43.6767C69.9834 43.6894 69.9962 43.7123 69.9962 43.7388C69.9962 43.7724 69.9711 43.7973 69.9353 43.808V43.8116C69.9641 43.8207 69.9802 43.8436 69.9892 43.8824C69.9979 43.927 70.0032 43.9446 70.0106 43.9536H69.9374C69.9283 43.943 69.9229 43.918 69.9139 43.8845C69.9085 43.8526 69.8908 43.8382 69.8534 43.8382H69.8212V43.9536ZM69.8229 43.7904H69.855C69.8925 43.7904 69.9229 43.7781 69.9229 43.7479C69.9229 43.7213 69.9032 43.7033 69.8603 43.7033C69.8426 43.7033 69.8298 43.7053 69.8228 43.7069L69.8229 43.7904Z" fill="#FDBB30"/>
<rect x="0.5" y="0.735931" width="79" height="79" rx="39.5" stroke="#C3C3C3"/>
</svg>
