<svg width="80" height="81" viewBox="0 0 80 81" fill="none" xmlns="http://www.w3.org/2000/svg">
<path d="M79.8965 40.5754C79.8965 62.5982 62.0228 80.4719 40 80.4719C17.9771 80.4719 0.103455 62.5982 0.103455 40.5754C0.103455 18.5525 17.9771 0.678833 40 0.678833C62.0228 0.678833 79.8965 18.5525 79.8965 40.5754Z" fill="white"/>
<path d="M44.143 17.1464C41.5003 16.7209 38.8064 16.7209 36.1637 17.1464C35.9517 17.1464 35.8445 17.0404 36.0577 16.8272L40.207 13.6355L44.3562 16.8272C44.4622 17.0392 44.355 17.1464 44.143 17.1464ZM37.3369 36.9351C37.2309 36.9351 37.125 37.041 37.125 37.147C37.9765 37.7854 38.5089 39.2752 40.3167 39.2752C42.1245 39.2752 42.6569 37.7854 43.5084 37.147C43.5084 37.041 43.4024 36.9351 43.2965 36.9351C41.3232 37.2543 39.3102 37.2543 37.3369 36.9351ZM40.2107 34.4877C39.6783 34.4877 39.5724 34.2757 39.2532 34.2757C38.8293 34.2757 38.5089 34.4877 38.1897 34.8081C38.1897 34.9141 38.2957 35.02 38.2957 35.1273C39.04 35.2332 39.3592 35.6596 40.1035 35.6596C40.8478 35.6596 41.2754 35.2357 41.9113 35.1273C42.0173 35.0213 42.0173 34.9153 42.0173 34.8081C41.6981 34.4889 41.3789 34.3842 40.9538 34.2757C40.8478 34.2757 40.7431 34.4877 40.2107 34.4877ZM80 42.0431C80 43.0006 79.894 43.9581 79.788 44.9156C75.3196 45.6599 73.6166 41.6179 69.0409 41.8299C69.3601 42.7874 69.5733 43.8496 69.6793 44.8096C73.5093 44.8096 74.9992 48.3205 79.2544 47.8954C79.0425 48.9589 78.7221 50.0236 78.4029 51.0871C74.9992 51.4063 73.8273 48.1073 69.9997 48.2146V50.8739C73.2974 50.8739 74.3634 53.8537 77.5551 53.7465L76.2784 56.9382C74.0442 56.8322 73.1927 53.9584 69.789 54.1704L69.3651 56.4046C72.3449 56.1926 72.9807 58.9579 75.1102 59.1724C74.5778 60.1299 73.9382 61.1922 73.3024 62.0449C72.0257 61.4066 70.9622 59.2771 68.5148 59.1724L69.1531 56.8322C66.7057 56.7262 64.3656 55.7687 62.5577 54.0644C63.1961 50.2343 57.3463 46.4043 57.3463 43.6377C57.3463 40.6579 58.8361 38.9561 58.8361 34.9141C58.7302 31.7223 57.4522 28.6366 55.2205 26.4024C54.7966 25.9785 54.369 25.6581 53.8366 25.3389C56.0708 27.7863 57.3475 30.8708 57.4522 34.1697C57.4522 37.9998 55.6444 40.0208 55.6444 43.533C55.6444 47.0451 60.7512 50.1283 60.7512 53.7465C60.7512 55.1304 60.3273 56.619 58.8361 59.2784C60.7512 61.2981 63.3046 62.5761 66.0711 62.894C66.6035 63 67.0286 62.682 67.2431 62.1497C67.455 61.7258 67.667 61.2981 67.7755 60.873C69.9037 60.979 70.8612 62.8927 72.0307 63.6408L70.0109 66.0882C69.2666 65.2367 68.2031 63.748 66.6072 63.3204C66.2881 63.8528 66.0749 64.3839 65.7557 64.9162C67.0324 65.2354 67.9899 66.6181 68.6283 67.4696L66.2881 69.7038C65.7557 68.7463 65.0114 68.002 64.0539 67.3636C63.7347 67.7875 63.4155 68.2152 62.9904 68.6403C63.7347 69.2787 64.3743 70.0242 64.7982 70.8745L61.8184 73.0028C61.286 68.9595 55.7541 66.1954 57.2428 61.5126C56.6044 62.4701 56.2853 63.5323 56.1793 64.5983C56.1793 68.002 59.7949 70.6626 60.1153 74.0675L57.7614 75.3405C57.6555 71.6164 53.8254 67.5731 53.8254 64.4886C53.8254 61.0849 58.2938 57.6813 58.2938 53.6367C58.2938 49.5922 53.187 46.8294 53.187 43.3173C53.187 39.8051 55.4212 37.7854 55.4212 33.2097C55.4212 29.8061 53.9314 26.6143 51.378 24.3789L49.9941 23.4214C52.3343 26.1892 53.6097 28.6329 53.6097 32.4642C53.6097 36.7194 51.1623 39.0596 51.1623 43.2113C51.1623 47.363 56.1618 49.7007 56.1618 53.5308C56.1618 57.3608 51.4802 60.6585 51.4802 64.7018C51.4802 68.3174 55.6295 71.9368 55.6295 76.2967C54.7257 76.6974 53.8023 77.0523 52.8629 77.3602C53.3953 72.9965 48.7136 68.5294 48.7136 65.0172C48.7136 61.0812 53.6072 57.7822 53.6072 53.6343C53.6072 49.4863 48.6077 47.4628 48.6077 43.2076C48.6077 38.9523 51.6934 36.5049 51.6934 31.8246C51.6934 28.3137 49.9916 24.9088 47.225 22.7818L47.0131 22.6758C46.8011 22.4639 46.5892 22.6758 46.6939 22.8878C48.6089 25.2279 49.6737 28.2077 49.5664 31.1862C49.5664 35.5499 46.0555 39.0596 46.0555 43.2088C46.0555 48.2083 50.7372 49.5922 50.7372 53.6355C50.7372 57.6788 45.7376 60.9765 45.7376 65.3389C45.7376 69.3822 50.5252 73.7421 49.6737 78.425L46.8011 79.0633C47.6527 73.3182 42.971 69.169 42.971 65.4449C42.971 61.4016 48.1825 57.7847 48.1825 53.7415C48.1825 50.0174 44.4584 48.7419 43.9273 44.9106C43.9273 44.3783 43.5034 44.0591 42.9698 44.0591H42.8638C41.7892 44.3838 40.6843 44.5977 39.5661 44.6974C38.5026 44.5915 37.3319 44.3783 36.2684 44.0591C35.7361 43.9531 35.3109 44.271 35.2049 44.8034V44.9094C34.6726 48.7395 30.9497 50.0161 30.9497 53.7402C30.9497 57.7835 36.1612 61.4004 36.1612 65.4436C36.1612 69.1677 31.4796 73.317 32.3311 79.0621L29.4586 78.4237C28.7143 73.8481 33.5019 69.3809 33.5019 65.3377C33.5019 60.974 28.5023 57.7822 28.5023 53.6343C28.5023 49.4863 33.1839 48.1024 33.1839 43.2076C33.1839 38.9523 29.673 35.4402 29.673 31.185C29.5671 28.2052 30.6306 25.2254 32.5456 22.8865C32.7575 22.6746 32.5456 22.4626 32.2264 22.6746L32.0145 22.7805C29.2466 24.9088 27.5461 28.3124 27.5461 31.8233C27.5461 36.6109 30.6318 38.9511 30.6318 43.2063C30.6318 47.4615 25.6323 49.4838 25.6323 53.633C25.6323 57.7822 30.5258 61.1884 30.5258 65.016C30.5258 68.5269 25.8442 73.1013 26.3766 77.359C25.4372 77.0511 24.5138 76.6961 23.61 76.2955C23.716 72.0403 27.8652 68.4222 27.8652 64.7006C27.8652 60.6573 23.1836 57.4656 23.1836 53.5295C23.1836 49.5935 28.8227 47.4653 28.8227 43.316C28.8227 39.1668 26.3753 36.8266 26.3753 32.5689C26.3753 28.7388 27.652 26.2914 29.991 23.5261C29.4586 23.738 29.0334 24.0585 28.6071 24.4836C26.0537 26.7178 24.671 29.9095 24.5638 33.3145C24.5638 37.7829 26.798 39.9098 26.798 43.422C26.798 46.9341 21.6912 49.8054 21.6912 53.7415C21.6912 57.6775 26.1596 61.1884 26.1596 64.5933C26.1596 67.6791 22.3296 71.7211 22.2236 75.4452C21.4793 75.0213 20.6277 74.5937 19.8834 74.1685C20.2026 70.7648 23.8195 68.1042 23.8195 64.6993C23.7135 63.6358 23.3956 62.4651 22.756 61.6136C24.2459 66.2952 18.7127 69.0605 18.1803 73.1038C17.2228 72.4654 16.1606 71.7198 15.2006 70.9755C15.6245 70.124 16.2641 69.3797 17.0084 68.7413C16.6892 68.3174 16.2641 67.8898 15.9449 67.4646C15.0934 68.103 14.349 68.8485 13.7107 69.8048C12.8591 69.0605 12.1148 68.3149 11.3705 67.5706C12.1148 66.7191 12.9664 65.3364 14.2431 65.0172C13.9239 64.4849 13.6047 63.9537 13.3915 63.4214C11.9016 63.8453 10.8381 65.2292 9.98784 66.1892C9.24352 65.3377 8.60393 64.5933 7.96808 63.7418C9.14004 62.9975 10.0963 61.0824 12.2233 60.974C12.4352 61.3979 12.5425 61.8255 12.7557 62.2507C12.9676 62.783 13.394 62.995 13.9276 62.995C16.6954 62.6758 19.2476 61.3991 21.1626 59.4841C19.6727 56.7163 19.2476 55.3348 19.2476 53.9522C19.2476 50.3366 24.3543 47.2496 24.3543 43.7387C24.3543 40.2278 22.5465 38.2068 22.5465 34.3755C22.6518 31.0614 23.9341 27.8931 26.1634 25.4386C25.631 25.7578 25.2059 26.077 24.7795 26.5021C22.5453 28.7363 21.2686 31.8221 21.1639 35.0138C21.1639 39.0571 22.6537 40.7589 22.6537 43.7374C22.6537 46.5052 16.8027 50.3328 17.4423 54.1641C15.6344 55.866 13.293 56.8235 10.8469 56.8235L11.4852 59.1637C9.03781 59.2696 7.97432 61.3979 6.69763 62.0362C6.05928 61.0787 5.52567 60.1212 4.88982 59.1637C7.01805 58.9517 7.65764 56.1839 10.6349 56.3958C10.5289 55.6515 10.423 54.906 10.211 54.1616C6.80734 53.9497 5.9558 56.821 3.7216 56.9295C3.18923 55.866 2.76408 54.8012 2.44491 53.7377C5.63663 53.8437 6.70012 50.8652 10.0003 50.8652V48.2108C6.06427 48.1048 4.89356 51.4025 1.59711 51.0834C1.27794 50.0199 1.06474 48.9551 0.745566 47.8917C5.00078 48.424 6.49067 44.8059 10.3207 44.8059L10.9591 41.8261C6.38344 41.6142 4.68161 45.6562 0.21195 44.9119C0.105975 43.9544 0 42.9968 0 42.0393C5.21148 42.5717 7.23499 38.3152 12.0226 38.8476C12.4465 37.6756 13.0861 36.6134 13.6184 35.5499C7.65889 34.4864 5.63912 39.486 0 38.7416C0.629617 16.7212 18.9272 -0.621273 40.9513 0.0170717C62.1214 0.655416 79.146 17.5715 79.6758 38.7416C74.1439 39.486 72.0157 34.4864 66.0574 35.5499C66.6958 36.6134 67.1209 37.6781 67.6533 38.8476C72.76 38.2093 74.781 42.5717 79.9963 42.0393M23.0789 25.2329C19.8872 23.9562 16.3763 24.3814 13.5037 26.2964C13.0798 23.5286 11.5887 21.0849 9.35449 19.4891C9.27536 19.4373 9.18286 19.4097 9.0883 19.4097C8.99375 19.4097 8.90125 19.4373 8.82212 19.4891C8.71614 19.595 8.71614 19.701 8.71614 19.8082C9.14004 25.7678 5.73637 30.9793 1.37518 35.5549C5.84359 36.8316 9.56644 31.1912 15.314 33.2147C17.3338 30.023 19.9956 27.3636 23.0814 25.2354M40.2119 21.6198C36.4879 21.6198 33.4046 23.748 32.5518 26.4074C32.4458 26.6193 32.5518 26.7265 32.7638 26.6193C33.5081 26.3002 34.2537 26.1954 34.998 26.1954C36.3819 26.0894 37.6573 26.7278 38.6136 27.6853C38.9328 28.962 38.9328 30.2387 38.6136 31.4094C37.9753 31.3034 37.7621 30.7711 37.1237 30.7711C36.4854 30.7711 36.0602 31.195 34.9955 31.195C33.9307 31.195 33.8235 30.6626 33.1877 30.6626C32.5518 30.6626 32.2302 31.5141 32.2302 32.3644C32.2302 36.5137 36.0602 42.1515 39.9975 42.1515C43.9348 42.1515 47.7649 36.5124 47.7649 32.3644C47.7649 31.4069 47.5529 30.6626 46.7014 30.5566C46.169 30.9805 45.6379 31.195 44.9995 31.089C43.936 31.089 43.7228 30.6651 43.0845 30.6651C42.4462 30.6651 42.4462 32.2609 41.5946 32.2609C41.0622 30.7711 40.9563 29.0692 41.4886 27.4734C42.4462 26.4099 43.7228 25.8775 45.1043 25.9835C45.8486 25.9835 46.5941 26.0894 47.3385 26.4074C47.5504 26.5133 47.6576 26.4074 47.5504 26.1954C46.9121 23.748 43.8263 21.6198 40.2095 21.6198M45.9546 27.5793C44.997 27.5793 44.0395 27.8985 43.4012 28.5368C43.2952 28.7488 43.2952 28.9608 43.4012 29.2812C44.997 28.7488 46.3809 28.7488 47.1253 29.4931C47.4444 29.2812 47.5492 28.8548 47.5492 28.5356C47.5492 27.8973 47.0168 27.5781 45.9533 27.5781M33.078 29.4881C33.8223 28.7438 35.5254 28.7438 37.2272 29.3822C37.3332 28.5306 35.8433 27.5743 34.2474 27.5743C33.1839 27.5743 32.6516 27.8935 32.6516 28.4259C32.6516 28.8498 32.7575 29.2774 33.0755 29.4894M58.6117 15.4458C55.8439 15.6578 53.2918 16.6178 51.1648 18.3184C52.0163 15.9782 53.1846 13.6367 54.5685 11.6157C51.1648 11.8277 47.9731 13.3176 45.4172 15.659L43.7154 11.0834L47.6526 7.57123L42.3327 7.14733L40.2045 2.25377L38.0762 7.14733L32.7563 7.57123L36.6923 11.0821L34.8845 15.7637C32.4371 13.3163 29.2454 11.9337 25.7333 11.7205C27.1172 13.8487 28.2866 16.0841 29.1369 18.4231C27.0087 16.7212 24.3493 15.6553 21.5815 15.5505C23.3893 17.7847 24.8792 20.2321 26.0499 22.7855C26.1559 22.9975 26.4738 23.2094 26.6883 23.1047H26.7943C30.9286 21.0578 35.4796 19.9929 40.0929 19.9929C44.7062 19.9929 49.2572 21.0578 53.3915 23.1047C53.6035 23.2107 53.9239 23.2107 54.0299 22.9987V22.8927C55.3065 20.1249 56.7977 17.6813 58.6055 15.4458M64.9889 33.1063C70.734 31.0865 74.4581 36.8303 78.9278 35.4464C74.6726 30.8708 71.1604 25.7653 71.5868 19.6998C71.5868 19.4878 71.4809 19.2759 71.2677 19.2759C71.1617 19.2759 71.0557 19.2759 70.9485 19.3818C68.7143 20.9777 67.2244 23.5311 66.7992 26.1892C63.9267 24.2742 60.4158 23.849 57.2241 25.1257C60.3098 27.3599 62.9692 30.0193 64.9914 33.105" fill="#006241"/>
</svg>
