<svg width="349" height="148" viewBox="0 0 349 148" fill="none" xmlns="http://www.w3.org/2000/svg">
<rect x="0.5" y="0.326172" width="348" height="147" rx="15" fill="#4CC1FF"/>
<mask id="mask0_21_330" style="mask-type:alpha" maskUnits="userSpaceOnUse" x="0" y="0" width="349" height="148">
<rect x="0.384888" y="0.0575562" width="348.23" height="147.54" rx="15" fill="#FFF3E0"/>
</mask>
<g mask="url(#mask0_21_330)">
<path d="M192.062 -24.3969C209.203 -25.9975 225.992 -31.3899 241.105 -40.1487C248.464 -44.3892 256.608 -47.0503 264.938 -47.9362C273.267 -48.822 281.571 -47.9099 289.237 -45.2672M270.549 7.80192C244.681 22.7809 215.539 31.1176 185.878 32.0229M253.854 -17.7922C260.544 -21.6543 268.486 -22.7133 275.934 -20.7364C283.382 -18.7594 289.726 -13.9084 293.57 -7.25041C297.414 -0.592462 298.443 7.32701 296.431 14.7658C294.419 22.2046 289.531 28.5534 282.842 32.4155C256.872 47.4783 227.891 56.5999 198 59.1189M265.926 103.538C281.966 97.9842 297.447 90.9175 312.156 82.435C332.074 70.935 346.646 52.0569 352.664 29.9539C358.682 7.85079 355.655 -15.6668 344.247 -35.4252C332.84 -55.1836 313.987 -69.5644 291.836 -75.4039C269.685 -81.2435 246.05 -78.0635 226.132 -66.5634C217.614 -61.616 208.31 -58.1699 198.633 -56.378M227.34 -6.00986C212.889 -1.02851 197.826 1.72142 182.716 2.13679M314.679 -24.7218C316.05 -22.915 317.311 -21.0287 318.455 -19.0721C325.648 -6.61264 327.35 8.33694 323.186 22.4879C319.022 36.6389 309.333 48.8322 296.251 56.3853C288.002 61.1388 279.482 65.404 270.74 69.1567M244.751 79.0702C238.957 81.3792 233.103 83.5846 227.37 85.5817" stroke="#32ACED" stroke-width="14" stroke-linecap="round" stroke-linejoin="round"/>
<path d="M30.984 70.3178C36.2742 68.3572 41.1316 65.2261 45.1729 61.1715C47.1426 59.2049 49.4949 57.6718 52.0566 56.6848C54.6183 55.6979 57.3243 55.2822 59.9754 55.4685" stroke="white" stroke-width="3" stroke-linecap="round" stroke-linejoin="round"/>
<path d="M58.561 73.854C51.6431 80.7899 43.1248 85.9009 33.8123 88.7033" stroke="white" stroke-width="3" stroke-linecap="round" stroke-linejoin="round"/>
<path d="M51.1044 67.1681C52.8944 65.3781 55.3188 64.3692 57.8442 64.3632C60.3697 64.3573 62.7894 65.3548 64.571 67.1364C66.3526 68.918 67.3501 71.3377 67.3442 73.8632C67.3382 76.3886 66.3293 78.813 64.5393 80.603C57.5959 87.5741 49.1955 92.9198 39.9471 96.2526" stroke="white" stroke-width="3" stroke-linecap="round" stroke-linejoin="round"/>
<path d="M65.2175 104.552C69.8241 101.434 74.1252 97.8836 78.062 93.9507C83.3919 88.6207 86.4033 81.4088 86.4336 73.9013C86.464 66.3939 83.5107 59.2061 78.2236 53.919C72.9365 48.6318 65.7487 45.6786 58.2412 45.7089C50.7338 45.7393 43.5219 48.7506 38.1919 54.0806C35.9151 56.3693 33.2622 58.2493 30.3509 59.6374" stroke="white" stroke-width="3" stroke-linecap="round" stroke-linejoin="round"/>
<path d="M43.7113 73.1469C39.5592 75.9495 35.0242 78.0977 30.2763 79.5108" stroke="white" stroke-width="3" stroke-linecap="round" stroke-linejoin="round"/>
<path d="M69.7719 59.815C70.3592 60.2707 70.9182 60.7609 71.4463 61.2833C74.7803 64.6172 76.5871 69.2053 76.4692 74.0381C76.3514 78.871 74.3185 83.5527 70.8178 87.0534C68.6097 89.2578 66.2745 91.3307 63.8253 93.2602" stroke="white" stroke-width="3" stroke-linecap="round" stroke-linejoin="round"/>
<path d="M56.4395 98.6026C54.8012 99.825 53.1351 101.02 51.4898 102.138" stroke="white" stroke-width="3" stroke-linecap="round" stroke-linejoin="round"/>
</g>
</svg>
